<?xml version="1.0" encoding="UTF-8" standalone="no"?>
<!-- Created with Inkscape (http://www.inkscape.org/) -->

<svg
   xmlns:dc="http://purl.org/dc/elements/1.1/"
   xmlns:cc="http://creativecommons.org/ns#"
   xmlns:rdf="http://www.w3.org/1999/02/22-rdf-syntax-ns#"
   xmlns:svg="http://www.w3.org/2000/svg"
   xmlns="http://www.w3.org/2000/svg"
   xmlns:sodipodi="http://sodipodi.sourceforge.net/DTD/sodipodi-0.dtd"
   xmlns:inkscape="http://www.inkscape.org/namespaces/inkscape"
   width="2000"
   height="2000"
   viewBox="0 0 529.16665 529.16668"
   version="1.1"
   id="svg8"
   inkscape:version="0.92.3 (2405546, 2018-03-11)"
   sodipodi:docname="J_CubeFaces.svg">
  <defs
     id="defs2" />
  <sodipodi:namedview
     id="base"
     pagecolor="#ffffff"
     bordercolor="#666666"
     borderopacity="1.0"
     inkscape:pageopacity="0.0"
     inkscape:pageshadow="2"
     inkscape:zoom="0.35"
     inkscape:cx="511.01313"
     inkscape:cy="1131.6202"
     inkscape:document-units="px"
     inkscape:current-layer="layer2"
     showgrid="false"
     units="px"
     inkscape:window-width="1920"
     inkscape:window-height="1017"
     inkscape:window-x="1912"
     inkscape:window-y="-8"
     inkscape:window-maximized="1"
     showguides="true"
     inkscape:guide-bbox="true"
     objecttolerance="50" />
  <metadata
     id="metadata5">
    <rdf:RDF>
      <cc:Work
         rdf:about="">
        <dc:format>image/svg+xml</dc:format>
        <dc:type
           rdf:resource="http://purl.org/dc/dcmitype/StillImage" />
        <dc:title />
      </cc:Work>
    </rdf:RDF>
  </metadata>
  <g
     inkscape:label="InfosPerso"
     inkscape:groupmode="layer"
     id="layer1"
     transform="translate(0,232.16668)"
     style="display:none">
    <path
       style="fill:#000000;stroke:none;stroke-width:1.32291663;stroke-linecap:round;stroke-linejoin:round;stroke-miterlimit:4;stroke-dasharray:none;stroke-dashoffset:0;paint-order:normal"
       d="M 421.44347,32.416653 A 156.86012,187.09822 0 0 1 264.58334,219.51487 156.86012,187.09822 0 0 1 107.72322,32.416653 156.86012,187.09822 0 0 1 264.58334,-154.68157 156.86012,187.09822 0 0 1 421.44347,32.416653 Z"
       id="path815"
       inkscape:connector-curvature="0" />
  </g>
  <g
     inkscape:groupmode="layer"
     id="layer2"
     inkscape:label="Skills">
    <path
       style="fill:#000000;stroke:none;stroke-width:7.21169519;stroke-linecap:round;stroke-linejoin:round;stroke-miterlimit:4;stroke-dasharray:none;stroke-dashoffset:0;paint-order:normal"
       d="M 434.60742 1006.3496 L 434.60742 1478.5117 L 691.69922 1478.5117 L 691.69922 1006.3496 L 434.60742 1006.3496 z M 484.20898 1025.4238 L 501.45312 1025.4238 L 501.45312 1446.9043 L 484.20898 1446.9043 L 484.20898 1025.4238 z M 554.53125 1025.4238 L 571.77539 1025.4238 L 571.77539 1446.9043 L 554.53125 1446.9043 L 554.53125 1025.4238 z M 624.85352 1025.4238 L 642.09766 1025.4238 L 642.09766 1446.9043 L 624.85352 1446.9043 L 624.85352 1025.4238 z "
       transform="scale(0.26458333)"
       id="rect828" />
    <path
       style="fill:#000000;stroke:none;stroke-width:1.42629147;stroke-linecap:round;stroke-linejoin:round;stroke-miterlimit:4;stroke-dasharray:none;stroke-dashoffset:0;paint-order:normal"
       d="m 133.10955,244.70757 30.02125,0.16134 17.15498,19.73704 h -63.47344 z"
       id="rect833"
       inkscape:connector-curvature="0"
       sodipodi:nodetypes="ccccc" />
    <rect
       style="fill:#000000;stroke:none;stroke-width:1.79570222;stroke-linecap:round;stroke-linejoin:round;stroke-miterlimit:4;stroke-dasharray:none;stroke-dashoffset:0;paint-order:normal"
       id="rect836"
       width="63.545792"
       height="11.518008"
       x="116.77615"
       y="231.79784" />
    <path
       style="fill:#000000;stroke:none;stroke-width:1.57465601;stroke-linecap:round;stroke-linejoin:round;stroke-miterlimit:4;stroke-dasharray:none;stroke-dashoffset:0;paint-order:normal"
       d="m 117.48201,392.959 c 0.64759,16.59928 14.22042,29.769 30.98398,29.769 h 0.80493 c 16.76355,0 30.33579,-13.16972 30.98337,-29.769 z"
       id="rect843"
       inkscape:connector-curvature="0" />
    <rect
       y="-155.63704"
       x="112.07127"
       height="14.17601"
       width="117.36085"
       id="rect848"
       style="fill:#000000;stroke:none;stroke-width:2.70732784;stroke-linecap:round;stroke-linejoin:round;stroke-miterlimit:4;stroke-dasharray:none;stroke-dashoffset:0;paint-order:normal"
       transform="rotate(90)" />
    <path
       style="fill:#000000;stroke:none;stroke-width:1.37689471;stroke-linecap:round;stroke-linejoin:round;stroke-miterlimit:4;stroke-dasharray:none;stroke-dashoffset:0;paint-order:normal"
       inkscape:transform-center-x="-4.2943388e-006"
       d="m 155.61093,109.09176 -14.17118,0.0667 -4.95761,-19.049008 4.89431,-19.115745 14.17119,-0.06673 5.06835,19.049015 z"
       id="path850"
       inkscape:connector-curvature="0"
       sodipodi:nodetypes="ccccccc"
       inkscape:transform-center-y="4.3630806e-006" />
    <path
       style="fill:#000000;stroke:none;stroke-width:3.70333982;stroke-linecap:round;stroke-linejoin:round;stroke-miterlimit:4;stroke-dasharray:none;stroke-dashoffset:0;paint-order:normal"
       d="M 1245.7148 771.42773 L 1245.7148 1615.1582 A 82.945932 64.558061 0 0 0 1245.6055 1616.8613 A 82.945932 64.558061 0 0 0 1245.7148 1619.2539 A 82.945932 64.558061 0 0 0 1328.5527 1681.4199 A 82.945932 64.558061 0 0 0 1411.3438 1619.2539 L 1411.4277 1619.2539 L 1411.4277 1617.957 A 82.945932 64.558061 0 0 0 1411.498 1616.8613 A 82.945932 64.558061 0 0 0 1411.4277 1615.3262 L 1411.4277 771.42773 L 1245.7148 771.42773 z M 1328.7422 1524.4434 L 1380.1055 1554.3164 L 1379.9141 1613.7363 L 1328.3613 1643.2793 L 1276.998 1613.4062 L 1277.1895 1553.9863 L 1328.7422 1524.4434 z "
       transform="scale(0.26458333)"
       id="rect835" />
    <path
       style="fill:#ffffff;stroke:none;stroke-width:2.06940961;stroke-linecap:round;stroke-linejoin:round;stroke-miterlimit:4;stroke-dasharray:none;stroke-dashoffset:0;paint-order:normal"
       d="m 351.51266,220.92578 c -7.95716,0 -14.36296,7.16173 -14.36296,16.05742 v 132.68286 c 0,8.89569 6.4058,16.0574 14.36296,16.0574 7.95716,0 14.36293,-7.16171 14.36293,-16.0574 V 236.9832 c 0,-8.89569 -6.40577,-16.05742 -14.36293,-16.05742 z m 0,3.89641 c 6.03229,0 10.88874,6.84608 10.88874,15.34996 v 126.83929 c 0,8.50387 -4.85645,15.34996 -10.88874,15.34996 -6.03229,0 -10.88874,-6.84609 -10.88874,-15.34996 V 240.17215 c 0,-8.50388 4.85645,-15.34997 10.88874,-15.34996 z"
       id="rect849"
       inkscape:connector-curvature="0" />
    <circle
       style="fill:#000000;stroke:none;stroke-width:1.7535131;stroke-linecap:round;stroke-linejoin:round;stroke-miterlimit:4;stroke-dasharray:none;stroke-dashoffset:0;paint-order:normal"
       id="path856"
       cx="346.65393"
       cy="154.74895"
       r="45.168552" />
    <path
       style="fill:#000000;stroke:none;stroke-width:0.26458332px;stroke-linecap:butt;stroke-linejoin:miter;stroke-opacity:1"
       d="m 329.59537,204.10692 c 0,0 -6.14226,-12.66198 -16.91456,-17.67016 l 76.44568,-12.56771 c 0,0 -11.62324,10.48839 -15.68625,30.23787 l -9.92164,6.04784 -20.41071,-0.56696 z"
       id="path860"
       inkscape:connector-curvature="0"
       sodipodi:nodetypes="ccccccc" />
  </g>
</svg>
